<svg xmlns="http://www.w3.org/2000/svg" viewBox="0 0 128 128">
  <defs>
    <linearGradient id="grad" x1="0%" y1="0%" x2="100%" y2="100%">
      <stop offset="0%" style="stop-color:#fe2c55"/>
      <stop offset="100%" style="stop-color:#25f4ee"/>
    </linearGradient>
  </defs>
  <rect width="128" height="128" rx="24" fill="#000"/>
  <g transform="translate(24, 16)">
    <path fill="#25F4EE" d="M68.3 39.4v-3.2a19 19 0 0 1-10.4-3.1 19 19 0 0 0 10.4 6.3Z"/>
    <path fill="#FE2C55" d="M57.9 33.1a19 19 0 0 1-4.7-12.5h-3.6c.9 5.3 4 9.8 8.3 12.5Z"/>
    <path fill="#25F4EE" d="M38.6 43.1a14.5 14.5 0 0 0-7.5 12.7 14.5 14.5 0 0 0 14.5 14.5c1.7 0 3.4-.3 5-1v-16.4a22 22 0 0 1-2.8-.2v12.9c-1.6.6-3.3 1-5 1a14.5 14.5 0 0 1-14.5-14.5c0-5.5 3-10.3 7.5-12.7v-3.6c-7.9.8-14.2 7.2-14.2 15.1 0 8 6.5 14.5 14.5 14.5s14.5-6.5 14.5-14.5V36.6a22 22 0 0 0 12.9 4.1v-3.2a19 19 0 0 1-10.4-6.3 19 19 0 0 1-8.3-12.5h-9v37a9.6 9.6 0 0 1-9.6 9.6 9.6 9.6 0 0 1-9.6-9.6c0-5.3 4.3-9.6 9.6-9.6.7 0 1.5.1 2.2.3v-3.3Z"/>
    <path fill="#FE2C55" d="M68.3 36.3v3.2a22 22 0 0 1-12.9-4.1v19.1c0 8-6.5 14.5-14.5 14.5-3.2 0-6.1-1-8.5-2.7a14.5 14.5 0 0 0 12.3 6.9c8 0 14.5-6.5 14.5-14.5V39.6a22 22 0 0 0 12.9 4.1v-9a19 19 0 0 1-3.8-.4Z"/>
  </g>
  <circle cx="100" cy="100" r="20" fill="url(#grad)"/>
  <path fill="#fff" d="M92 100l12-8v16z"/>
</svg>
